<svg xmlns="http://www.w3.org/2000/svg" color="#F8DFC1" width="1000" height="1000" viewBox="0 0 1000 1000">
  <line x1="100" y1="80" x2="100" y2="920" stroke="#4D4D4D" stroke-width="1" opacity="0.28"/>
  <line x1="80" y1="100" x2="920" y2="100" stroke="#4D4D4D" stroke-width="1" opacity="0.28"/>
  <line x1="200" y1="80" x2="200" y2="920" stroke="#4D4D4D" stroke-width="1" opacity="0.28"/>
  <line x1="80" y1="200" x2="920" y2="200" stroke="#4D4D4D" stroke-width="1" opacity="0.28"/>
  <line x1="300" y1="80" x2="300" y2="920" stroke="#4D4D4D" stroke-width="1" opacity="0.28"/>
  <line x1="80" y1="300" x2="920" y2="300" stroke="#4D4D4D" stroke-width="1" opacity="0.28"/>
  <line x1="400" y1="80" x2="400" y2="920" stroke="#4D4D4D" stroke-width="1" opacity="0.28"/>
  <line x1="80" y1="400" x2="920" y2="400" stroke="#4D4D4D" stroke-width="1" opacity="0.28"/>
  <line x1="500" y1="80" x2="500" y2="920" stroke="#4D4D4D" stroke-width="3" opacity="0.6"/>
  <line x1="80" y1="500" x2="920" y2="500" stroke="#4D4D4D" stroke-width="3" opacity="0.6"/>
  <line x1="600" y1="80" x2="600" y2="920" stroke="#4D4D4D" stroke-width="1" opacity="0.28"/>
  <line x1="80" y1="600" x2="920" y2="600" stroke="#4D4D4D" stroke-width="1" opacity="0.28"/>
  <line x1="700" y1="80" x2="700" y2="920" stroke="#4D4D4D" stroke-width="1" opacity="0.28"/>
  <line x1="80" y1="700" x2="920" y2="700" stroke="#4D4D4D" stroke-width="1" opacity="0.28"/>
  <line x1="800" y1="80" x2="800" y2="920" stroke="#4D4D4D" stroke-width="1" opacity="0.28"/>
  <line x1="80" y1="800" x2="920" y2="800" stroke="#4D4D4D" stroke-width="1" opacity="0.28"/>
  <line x1="900" y1="80" x2="900" y2="920" stroke="#4D4D4D" stroke-width="1" opacity="0.28"/>
  <line x1="80" y1="900" x2="920" y2="900" stroke="#4D4D4D" stroke-width="1" opacity="0.28"/>
  <circle cx="500" cy="500" r="12" fill="#FFB02E"/>
</svg>